Coordinates
version=1
nRows=21
nColumns=12
inDegrees=yes

Units are S.I. units (second, meters, Newtons, ...)
Angles are in degrees

endheader
time	SC_y	SC_z	SC_x	AC_y	AC_z	AC_x	GH_y	GH_z	GH_yy	EL_x	PS_y
       0.0              -30.72           27.6          55.22          33.72         -17.24         -3.751          78.87          40.24         -67.78           44.9          77.66
  0.005404              -30.71           27.6          55.22          33.72         -17.23         -3.752          78.85          40.24         -67.79           44.9          77.67
   0.01081              -30.71           27.6          55.22          33.72         -17.23         -3.753          78.82          40.24          -67.8          44.91          77.68
   0.01621              -30.71           27.6          55.22          33.73         -17.23         -3.755           78.8          40.25         -67.81          44.92          77.69
   0.02161              -30.71           27.6          55.21          33.73         -17.22         -3.757          78.77          40.25         -67.83          44.92          77.71
   0.02702               -30.7           27.6          55.21          33.73         -17.22         -3.758          78.74          40.25         -67.84          44.93          77.72
   0.03242               -30.7           27.6          55.21          33.74         -17.22          -3.76          78.71          40.25         -67.86          44.94          77.74
   0.03782               -30.7           27.6           55.2          33.74         -17.21         -3.762          78.68          40.26         -67.88          44.95          77.75
   0.04323              -30.69           27.6           55.2          33.74         -17.21         -3.764          78.64          40.26          -67.9          44.96          77.77
   0.04863              -30.69           27.6           55.2          33.75         -17.21         -3.766          78.61          40.27         -67.92          44.97          77.79
   0.05404              -30.68          27.61          55.19          33.75          -17.2         -3.769          78.57          40.27         -67.94          44.98          77.81
   0.05944              -30.68          27.61          55.19          33.75          -17.2         -3.771          78.52          40.27         -67.96          44.99          77.84
   0.06484              -30.67          27.61          55.18          33.76         -17.19         -3.774          78.48          40.28         -67.99          45.01          77.86
   0.07025              -30.67          27.61          55.18          33.76         -17.19         -3.777          78.43          40.28         -68.02          45.02          77.89
   0.07565              -30.66          27.61          55.17          33.77         -17.18         -3.781          78.37          40.29         -68.05          45.03          77.92
   0.08105              -30.66          27.61          55.17          33.77         -17.17         -3.784          78.31           40.3         -68.08          45.05          77.95
   0.08646              -30.65          27.61          55.16          33.78         -17.17         -3.788          78.25           40.3         -68.11          45.07          77.98
   0.09186              -30.64          27.61          55.15          33.79         -17.16         -3.792          78.18          40.31         -68.15          45.09          78.02
   0.09726              -30.63          27.61          55.14          33.79         -17.15         -3.797           78.1          40.32         -68.19          45.11          78.06
    0.1027              -30.62          27.61          55.14           33.8         -17.14         -3.802          78.01          40.33         -68.24          45.13           78.1
    0.1081              -30.61          27.62          55.13          33.81         -17.13         -3.808          77.92          40.34         -68.29          45.16          78.15
